<?xml version="1.0" encoding="utf-8"?>
<svg viewBox="0.719 21.742 498.562 456.516" xmlns="http://www.w3.org/2000/svg">
  <path d="M 456.055 226.027 C 456.055 200.616 426.145 178.082 380.154 164.325 C 391.219 117.597 386.386 80.419 364.368 67.843 C 358.969 64.844 352.876 63.322 346.702 63.417 C 326.161 63.417 300.196 77.765 273.973 102.586 C 247.75 77.949 221.86 63.676 201.353 63.676 C 195.084 63.54 188.892 65.092 183.429 68.174 C 161.521 80.789 156.984 117.744 167.903 164.252 C 122.132 177.934 92.369 200.284 92.295 225.585 C 92.222 250.885 122.243 273.53 168.234 287.251 C 157.169 334.015 161.964 371.154 184.018 383.731 C 189.397 386.747 195.482 388.275 201.648 388.158 C 222.229 388.158 248.193 373.809 274.415 348.988 C 300.6 373.625 326.491 387.899 347.035 387.899 C 353.3 388.017 359.49 386.464 364.958 383.4 C 386.866 370.786 391.365 333.831 380.486 287.508 C 426.255 273.641 456.019 251.29 456.055 226.027 Z M 290.863 110.92 C 321.069 83.887 339.954 80.973 346.666 80.973 C 349.779 80.873 352.862 81.614 355.591 83.112 C 366.139 89.124 370.343 110.331 366.986 138.433 C 366.127 145.611 364.896 152.74 363.299 159.789 C 348.015 156.236 332.517 153.688 316.902 152.153 C 307.6 139.104 297.451 126.688 286.513 114.977 C 287.876 113.612 289.352 112.249 290.863 110.92 Z M 199.435 246.939 C 202.313 252.471 205.373 258.002 208.545 263.572 C 211.717 269.141 215.036 274.785 218.725 280.353 C 208.729 278.915 199.03 277.108 189.809 274.968 C 192.391 265.6 195.674 256.38 199.435 246.939 Z M 189.219 176.717 C 198.551 174.541 208.325 172.735 218.466 171.332 C 214.778 176.79 211.607 182.397 208.287 188.261 C 204.968 194.125 202.053 199.324 199.213 204.932 C 195.452 195.341 192.117 185.938 189.219 176.717 Z M 208.434 225.916 C 213.008 216.253 218.034 206.59 223.518 196.927 C 229.052 187.264 234.989 177.861 241.111 168.86 C 251.843 168.05 262.909 167.607 274.305 167.644 C 285.7 167.682 296.433 168.087 307.092 168.934 C 313.215 177.861 319.077 187.375 324.611 196.781 C 330.143 206.185 335.233 216.033 339.805 225.659 C 335.269 235.321 330.216 245.021 324.759 254.609 C 319.299 264.199 313.287 273.714 307.166 282.713 C 296.433 283.563 285.368 283.969 273.973 283.969 C 262.575 283.969 251.843 283.488 241.185 282.639 C 235.062 273.714 229.161 264.421 223.629 254.794 C 218.096 245.168 213.192 235.543 208.582 225.916 L 208.434 225.916 Z M 329.626 171.443 C 339.658 172.845 349.358 174.651 358.541 176.79 C 355.813 185.9 352.566 195.23 348.805 204.636 C 345.89 199.104 342.867 193.572 339.658 188.004 C 336.448 182.433 333.057 176.828 329.774 171.443 L 329.626 171.443 Z M 339.805 263.351 C 342.978 257.771 346.001 252.201 348.878 246.644 C 352.566 256.233 356.253 265.675 358.836 274.895 C 349.541 277.071 339.77 278.841 329.626 280.242 C 333.189 274.785 336.633 269.155 339.954 263.351 L 339.805 263.351 Z M 274.047 127.517 C 280.685 134.598 287.214 142.271 293.593 150.495 C 287.287 150.236 280.831 150.053 274.305 150.053 C 267.777 150.053 261.101 150.053 254.648 150.495 C 260.954 142.306 267.407 134.598 274.047 127.517 Z M 192.244 83.26 C 195.039 81.773 198.185 81.063 201.353 81.194 C 207.996 81.476 214.512 83.115 220.495 86.026 C 234.008 92.399 246.452 100.838 257.376 111.031 L 261.69 114.977 C 250.862 126.602 240.809 138.92 231.596 151.859 C 215.895 153.383 200.31 155.92 184.942 159.456 C 183.319 152.302 181.99 145.294 181.254 138.544 C 177.417 110.699 181.842 89.456 192.206 83.408 L 192.244 83.26 Z M 172.734 270.248 C 165.804 268.134 158.985 265.671 152.301 262.87 C 126.115 251.808 109.888 237.608 109.888 225.474 C 109.888 213.34 126.189 199.214 152.338 188.334 C 158.902 185.617 165.596 183.23 172.402 181.18 C 177.01 196.461 182.629 211.417 189.219 225.954 C 182.768 240.348 177.263 255.145 172.734 270.248 Z M 257.56 340.691 C 227.354 367.725 208.472 370.602 201.723 370.602 C 198.608 370.708 195.526 369.968 192.797 368.462 C 182.249 362.452 178.045 341.245 181.401 313.141 C 182.256 305.978 183.488 298.862 185.088 291.823 C 200.377 295.347 215.873 297.884 231.486 299.421 C 240.772 312.481 250.924 324.898 261.875 336.598 L 257.56 340.691 Z M 274.415 324.058 C 267.777 316.976 261.249 309.305 254.831 301.081 C 261.174 301.376 267.628 301.523 274.157 301.523 C 280.685 301.523 287.361 301.523 293.815 301.118 C 287.434 309.305 280.942 316.976 274.379 324.058 L 274.415 324.058 Z M 356.218 368.316 C 353.419 369.85 350.257 370.602 347.071 370.491 C 340.36 370.491 321.254 367.542 291.158 340.616 L 286.844 336.671 C 297.658 325.05 307.7 312.728 316.902 299.79 C 332.617 298.293 348.215 295.754 363.594 292.193 C 365.216 299.349 366.507 306.355 367.281 313.104 C 370.934 340.911 366.691 362.157 356.18 368.168 L 356.218 368.316 Z M 396.05 263.425 C 389.743 266.006 383.067 268.404 375.987 270.543 C 371.358 255.268 365.725 240.307 359.131 225.77 C 365.607 211.396 371.14 196.61 375.691 181.511 C 382.621 183.629 389.44 186.092 396.124 188.888 C 422.272 199.953 438.537 214.153 438.499 226.285 C 438.464 238.419 422.199 252.397 396.013 263.277 L 396.05 263.425 Z M 274.047 259.662 C 300.11 259.693 316.43 231.497 303.423 208.911 C 290.414 186.324 257.837 186.29 244.78 208.849 C 241.801 213.99 240.233 219.827 240.226 225.77 C 240.186 244.479 255.34 259.662 274.047 259.662 Z M 49.07 21.742 L 49.07 429.833 L 499.281 429.833 L 499.281 21.742 L 49.07 21.742 Z M 481.687 412.277 L 66.7 412.277 L 66.7 39.334 L 481.687 39.334 L 481.687 412.277 Z M 168.198 287.251 C 157.133 334.015 161.926 371.154 183.983 383.731 C 189.359 386.747 195.445 388.275 201.613 388.158 C 222.191 388.158 248.156 373.809 274.379 348.988 C 300.564 373.625 326.455 387.899 346.998 387.899 C 353.263 388.017 359.453 386.464 364.921 383.4 C 386.828 370.786 391.329 333.831 380.449 287.508 C 426.219 273.789 455.982 251.438 456.019 226.175 C 456.055 200.912 426.108 178.229 380.116 164.472 C 391.182 117.744 386.348 80.567 364.331 67.991 C 358.933 64.993 352.841 63.469 346.666 63.566 C 326.123 63.566 300.158 77.912 273.935 102.734 C 247.713 78.095 221.824 63.823 201.318 63.823 C 195.046 63.686 188.855 65.239 183.392 68.322 C 161.485 80.937 156.949 117.892 167.865 164.397 C 122.096 178.082 92.333 200.432 92.259 225.732 C 92.184 251.033 122.243 273.457 168.234 287.251 L 168.198 287.251 Z M 257.486 340.691 C 227.28 367.725 208.398 370.602 201.648 370.602 C 198.535 370.708 195.452 369.968 192.723 368.462 C 182.175 362.452 177.97 341.245 181.327 313.141 C 182.181 305.978 183.415 298.862 185.014 291.823 C 200.302 295.347 215.8 297.884 231.411 299.421 C 240.697 312.481 250.852 324.898 261.802 336.598 L 257.486 340.691 Z M 348.915 204.636 C 346.001 199.104 342.978 193.572 339.77 188.004 C 336.56 182.433 333.131 176.937 329.737 171.443 C 339.77 172.845 349.468 174.651 358.652 176.79 C 355.959 185.9 352.714 195.23 348.95 204.636 L 348.915 204.636 Z M 358.947 274.711 C 349.652 276.886 339.879 278.656 329.737 280.058 C 333.203 274.601 336.597 268.972 339.916 263.166 C 343.235 257.366 346.259 251.795 348.988 246.459 C 352.862 256.233 356.218 265.6 358.873 274.895 L 358.947 274.711 Z M 339.732 225.474 C 335.196 235.137 330.143 244.836 324.684 254.425 C 319.226 264.016 313.215 273.53 307.092 282.528 C 296.359 283.377 285.295 283.784 273.9 283.784 C 262.501 283.784 251.771 283.303 241.111 282.456 C 234.989 273.53 229.088 264.236 223.556 254.609 C 218.023 244.984 212.971 235.357 208.36 225.732 C 212.934 216.069 217.961 206.407 223.445 196.743 C 228.977 187.08 234.914 177.676 241.038 168.676 C 251.771 167.866 262.834 167.422 274.23 167.46 C 285.627 167.497 296.359 167.903 307.019 168.751 C 313.14 177.676 319.004 187.191 324.536 196.595 C 330.07 206.001 335.196 216.033 339.77 225.659 L 339.732 225.474 Z M 218.725 280.353 C 208.729 278.915 199.03 277.108 189.809 274.968 C 192.539 265.896 195.821 256.529 199.582 247.123 C 202.459 252.654 205.52 258.188 208.693 263.755 C 211.864 269.326 215.036 274.785 218.725 280.353 Z M 208.434 188.15 C 205.225 193.682 202.202 199.214 199.361 204.82 C 195.499 195.306 192.117 185.938 189.219 176.717 C 198.551 174.541 208.325 172.735 218.466 171.332 C 215.036 176.79 211.754 182.433 208.434 188.15 Z M 274.379 324.058 C 267.739 316.976 261.211 309.305 254.795 301.081 C 261.138 301.376 267.591 301.523 274.119 301.523 C 280.647 301.523 287.324 301.523 293.777 301.118 C 287.434 309.305 280.942 316.976 274.379 324.058 Z M 356.18 368.316 C 353.381 369.85 350.221 370.602 347.035 370.491 C 340.322 370.491 321.217 367.542 291.122 340.616 L 286.808 336.671 C 297.622 325.05 307.664 312.728 316.865 299.79 C 332.58 298.293 348.177 295.754 363.556 292.193 C 365.181 299.349 366.47 306.355 367.245 313.104 C 370.934 340.911 366.691 362.157 356.18 368.168 L 356.18 368.316 Z M 375.654 181.474 C 382.584 183.591 389.404 186.055 396.087 188.85 C 422.234 199.915 438.499 214.115 438.464 226.249 C 438.427 238.382 422.199 252.654 396.013 263.536 C 389.706 266.118 383.031 268.514 375.95 270.654 C 371.321 255.377 365.688 240.418 359.095 225.881 C 365.587 211.411 371.119 196.525 375.654 181.326 L 375.654 181.474 Z M 290.827 111.067 C 321.033 84.034 339.916 81.12 346.628 81.12 C 349.741 81.02 352.825 81.763 355.554 83.26 C 366.101 89.271 370.306 110.479 366.951 138.581 C 366.091 145.759 364.859 152.888 363.261 159.936 C 347.979 156.384 332.481 153.836 316.865 152.302 C 307.563 139.253 297.413 126.836 286.475 115.126 C 287.876 113.612 289.352 112.249 290.863 110.92 L 290.827 111.067 Z M 274.047 127.517 C 280.685 134.598 287.214 142.271 293.593 150.495 C 287.287 150.236 280.831 150.053 274.305 150.053 C 267.777 150.053 261.101 150.053 254.648 150.495 C 260.954 142.306 267.407 134.598 274.047 127.517 Z M 192.244 83.26 C 195.039 81.773 198.185 81.063 201.353 81.194 C 207.996 81.476 214.512 83.115 220.495 86.026 C 234.008 92.399 246.452 100.838 257.376 111.031 L 261.69 114.977 C 250.862 126.602 240.809 138.92 231.596 151.859 C 215.895 153.383 200.31 155.92 184.942 159.456 C 183.319 152.302 181.99 145.294 181.254 138.544 C 177.417 110.699 181.842 89.456 192.206 83.408 L 192.244 83.26 Z M 152.338 188.334 C 158.902 185.617 165.596 183.23 172.402 181.18 C 177.01 196.461 182.629 211.417 189.219 225.954 C 182.745 240.333 177.215 255.115 172.659 270.211 C 165.729 268.099 158.911 265.634 152.227 262.835 C 126.041 251.77 109.814 237.57 109.814 225.436 C 109.814 213.304 126.189 199.214 152.338 188.334 Z M 274.047 192.021 C 247.983 191.998 231.662 220.192 244.669 242.779 C 257.673 265.366 290.256 265.398 303.312 242.841 C 306.288 237.696 307.859 231.862 307.867 225.916 C 308.01 207.141 292.825 191.838 274.047 191.838 L 274.047 192.021 Z M 274.047 192.021 C 247.983 191.998 231.662 220.192 244.669 242.779 C 257.673 265.366 290.256 265.398 303.312 242.841 C 306.288 237.696 307.859 231.862 307.867 225.916 C 308.01 207.141 292.825 191.838 274.047 191.838 L 274.047 192.021 Z M 274.047 192.021 C 247.983 191.998 231.662 220.192 244.669 242.779 C 257.673 265.366 290.256 265.398 303.312 242.841 C 306.288 237.696 307.859 231.862 307.867 225.916 C 308.01 207.141 292.825 191.838 274.047 191.838 L 274.047 192.021 Z M 456.055 226.1 C 456.055 200.689 426.145 178.156 380.154 164.397 C 391.219 117.67 386.386 80.494 364.368 67.917 C 358.969 64.919 352.876 63.395 346.702 63.49 C 326.161 63.49 300.196 77.838 273.973 102.659 C 247.75 78.022 221.86 63.75 201.353 63.75 C 195.084 63.613 188.892 65.165 183.429 68.248 C 161.521 80.862 156.984 117.818 167.903 164.325 C 122.132 178.007 92.369 200.358 92.295 225.659 C 92.222 250.959 122.243 273.604 168.234 287.324 C 157.169 334.09 161.964 371.229 184.018 383.805 C 189.397 386.823 195.482 388.35 201.648 388.231 C 222.229 388.231 248.193 373.884 274.415 349.063 C 300.6 373.7 326.491 387.974 347.035 387.974 C 353.3 388.091 359.49 386.538 364.958 383.474 C 386.866 370.859 391.365 333.904 380.486 287.581 C 426.255 273.641 456.019 251.29 456.055 226.027 L 456.055 226.1 Z M 290.863 110.92 C 321.069 83.887 339.954 80.973 346.666 80.973 C 349.779 80.873 352.862 81.614 355.591 83.112 C 366.139 89.124 370.343 110.331 366.986 138.433 C 366.127 145.611 364.896 152.74 363.299 159.789 C 348.015 156.236 332.517 153.688 316.902 152.153 C 307.6 139.104 297.451 126.688 286.513 114.977 C 287.876 113.612 289.352 112.249 290.863 110.92 Z M 199.435 246.939 C 202.313 252.471 205.373 258.002 208.545 263.572 C 211.717 269.141 215.036 274.785 218.725 280.353 C 208.729 278.915 199.03 277.108 189.809 274.968 C 192.391 265.6 195.674 256.38 199.435 246.939 Z M 189.219 176.717 C 198.551 174.541 208.325 172.735 218.466 171.332 C 214.778 176.79 211.607 182.397 208.287 188.261 C 204.968 194.125 202.053 199.324 199.213 204.932 C 195.452 195.341 192.117 185.938 189.219 176.717 Z M 208.434 225.916 C 213.008 216.253 218.034 206.59 223.518 196.927 C 229.052 187.264 234.989 177.861 241.111 168.86 C 251.843 168.05 262.909 167.607 274.305 167.644 C 285.7 167.682 296.433 168.087 307.092 168.934 C 313.215 177.861 319.077 187.375 324.611 196.781 C 330.143 206.185 335.233 216.033 339.805 225.659 C 335.269 235.321 330.216 245.021 324.759 254.609 C 319.299 264.199 313.287 273.714 307.166 282.713 C 296.433 283.563 285.368 283.969 273.973 283.969 C 262.575 283.969 251.843 283.488 241.185 282.639 C 235.062 273.714 229.161 264.421 223.629 254.794 C 218.096 245.168 213.192 235.543 208.582 225.916 L 208.434 225.916 Z M 329.626 171.443 C 339.658 172.845 349.358 174.651 358.541 176.79 C 355.813 185.9 352.566 195.23 348.805 204.636 C 345.89 199.104 342.867 193.572 339.658 188.004 C 336.448 182.433 333.057 176.828 329.774 171.443 L 329.626 171.443 Z M 339.805 263.351 C 342.978 257.771 346.001 252.201 348.878 246.644 C 352.566 256.233 356.253 265.675 358.836 274.895 C 349.541 277.071 339.77 278.841 329.626 280.242 C 333.189 274.785 336.633 269.155 339.954 263.351 L 339.805 263.351 Z M 274.047 127.517 C 280.685 134.598 287.214 142.271 293.593 150.495 C 287.287 150.236 280.831 150.053 274.305 150.053 C 267.777 150.053 261.101 150.053 254.648 150.495 C 260.954 142.306 267.407 134.598 274.047 127.517 Z M 192.244 83.26 C 195.039 81.773 198.185 81.063 201.353 81.194 C 207.996 81.476 214.512 83.115 220.495 86.026 C 234.008 92.399 246.452 100.838 257.376 111.031 L 261.69 114.977 C 250.862 126.602 240.809 138.92 231.596 151.859 C 215.895 153.383 200.31 155.92 184.942 159.456 C 183.319 152.302 181.99 145.294 181.254 138.544 C 177.417 110.699 181.842 89.456 192.206 83.408 L 192.244 83.26 Z M 172.734 270.248 C 165.804 268.134 158.985 265.671 152.301 262.87 C 126.115 251.808 109.888 237.608 109.888 225.474 C 109.888 213.34 126.189 199.214 152.338 188.334 C 158.902 185.617 165.596 183.23 172.402 181.18 C 177.01 196.461 182.629 211.417 189.219 225.954 C 182.768 240.348 177.263 255.145 172.734 270.248 Z M 257.56 340.691 C 227.354 367.725 208.472 370.602 201.723 370.602 C 198.608 370.708 195.526 369.968 192.797 368.462 C 182.249 362.452 178.045 341.245 181.401 313.141 C 182.256 305.978 183.488 298.862 185.088 291.823 C 200.377 295.347 215.873 297.884 231.486 299.421 C 240.772 312.481 250.924 324.898 261.875 336.598 L 257.56 340.691 Z M 274.415 324.058 C 267.777 316.976 261.249 309.305 254.831 301.081 C 261.174 301.376 267.628 301.523 274.157 301.523 C 280.685 301.523 287.361 301.523 293.815 301.118 C 287.434 309.305 280.942 316.976 274.379 324.058 L 274.415 324.058 Z M 356.218 368.316 C 353.419 369.85 350.257 370.602 347.071 370.491 C 340.36 370.491 321.254 367.542 291.158 340.616 L 286.844 336.671 C 297.658 325.05 307.7 312.728 316.902 299.79 C 332.617 298.293 348.215 295.754 363.594 292.193 C 365.216 299.349 366.507 306.355 367.281 313.104 C 370.934 340.911 366.691 362.157 356.18 368.168 L 356.218 368.316 Z M 396.05 263.425 C 389.743 266.006 383.067 268.404 375.987 270.543 C 371.358 255.268 365.725 240.307 359.131 225.77 C 365.607 211.396 371.14 196.61 375.691 181.511 C 382.621 183.629 389.44 186.092 396.124 188.888 C 422.272 199.953 438.537 214.153 438.499 226.285 C 438.464 238.419 422.199 252.397 396.013 263.277 L 396.05 263.425 Z M 274.047 259.662 C 300.11 259.693 316.43 231.497 303.423 208.911 C 290.414 186.324 257.837 186.29 244.78 208.849 C 241.801 213.99 240.233 219.827 240.226 225.77 C 240.186 244.479 255.34 259.662 274.047 259.662 Z M 18.385 460.667 L 18.385 52.427 L 0.719 70.129 L 0.719 478.258 L 450.855 478.258 L 468.484 460.667 L 18.385 460.667 Z" class="cls-1" style="fill: rgb(9, 211, 172);"/>
</svg>