<?xml version="1.0" encoding="utf-8"?>
<svg viewBox="134.439 2.81 231.12 494.379" xmlns="http://www.w3.org/2000/svg">
  <path d="M 293.026 57.954 C 272.227 33.412 254.31 8.314 250.67 3.162 C 250.345 2.693 249.648 2.693 249.323 3.162 C 245.685 8.314 227.771 33.414 206.973 57.954 C 28.721 285.042 235.108 438.256 235.108 438.256 L 236.781 439.418 C 238.346 463.122 242.233 497.189 242.233 497.189 L 257.766 497.189 C 257.766 497.189 261.637 463.27 263.208 439.571 L 264.891 438.256 C 264.891 438.256 471.278 285.044 293.026 57.954 Z M 250 434.925 L 249.998 434.925 C 249.998 434.925 240.746 427.033 238.248 423.079 L 238.227 422.654 L 249.418 175.42 C 249.439 174.972 249.935 174.715 250.314 174.957 C 250.473 175.059 250.573 175.232 250.581 175.42 L 261.772 422.654 L 261.75 423.077 C 259.254 427.031 250 434.925 250 434.925 Z" style="fill: rgb(255, 255, 255);"/>
</svg>